<svg width="95" height="92" viewBox="0 0 95 92" fill="none" xmlns="http://www.w3.org/2000/svg">
<rect x="0.5" y="0.5" width="94" height="91" rx="32.5" stroke="#E7E7E7"/>
<path d="M37.5871 45.9998C30.5164 35.5236 44.1382 32.2498 47.4979 27.6665C50.8583 32.2498 64.4795 35.5236 57.4042 45.9998H37.5871Z" stroke="#A85A00" stroke-width="1.5" stroke-linecap="round" stroke-linejoin="round"/>
<path d="M47.5 53.3335V57.0002" stroke="#A85A00" stroke-width="1.5" stroke-linecap="round" stroke-linejoin="round"/>
<path d="M37.417 46V53.8571C37.417 58.7957 37.417 61.2649 38.8937 62.7992C40.3703 64.3333 42.747 64.3333 47.5003 64.3333C52.2536 64.3333 54.6303 64.3333 56.1069 62.7992C57.5837 61.2649 57.5837 58.7957 57.5837 53.8571V46" stroke="#A85A00" stroke-width="1.5" stroke-linecap="round" stroke-linejoin="round"/>
<path d="M62.167 49.6667L64.0003 48.75M62.167 57L64.0003 57.9167" stroke="#A85A00" stroke-width="1.5" stroke-linecap="round" stroke-linejoin="round"/>
<path d="M32.8333 49.6667L31 48.75M32.8333 57L31 57.9167" stroke="#A85A00" stroke-width="1.5" stroke-linecap="round" stroke-linejoin="round"/>
</svg>
