<svg width="82" height="82" viewBox="0 0 82 82" fill="none" xmlns="http://www.w3.org/2000/svg">
<rect width="82" height="82" rx="38" fill="#FFB0B0"/>
<path d="M41 31C48.3638 31 54.3334 29.5077 54.3334 27.6667C54.3334 25.8258 48.3638 24.3334 41 24.3334C33.6362 24.3334 27.6667 25.8258 27.6667 27.6667C27.6667 29.5077 33.6362 31 41 31Z" stroke="#3B3B3B" stroke-width="2"/>
<path d="M41 41.8333C42.3807 41.8333 43.5 40.714 43.5 39.3333C43.5 37.6666 41 35.1666 41 35.1666C41 35.1666 38.5 37.6666 38.5 39.3333C38.5 40.714 39.6193 41.8333 41 41.8333Z" stroke="#3B3B3B" stroke-width="2" stroke-linecap="round" stroke-linejoin="round"/>
<path d="M52.6667 29.3334V38.5775C53.7287 39.2952 54.3334 40.1212 54.3334 41C54.3334 43.7615 48.3639 46 41 46C33.6362 46 27.6667 43.7615 27.6667 41C27.6667 40.1212 28.2714 39.2952 29.3334 38.5775V29.3334" stroke="#3B3B3B" stroke-width="2" stroke-linecap="round" stroke-linejoin="round"/>
<path d="M52.6667 43.5V50.2442C53.7287 50.9618 54.3334 51.7878 54.3334 52.6667C54.3334 55.4282 48.3639 57.6667 41 57.6667C33.6362 57.6667 27.6667 55.4282 27.6667 52.6667C27.6667 51.7878 28.2714 50.9618 29.3334 50.2442V43.5" stroke="#3B3B3B" stroke-width="2" stroke-linecap="round" stroke-linejoin="round"/>
</svg>
