<svg width="66" height="66" viewBox="0 0 66 66" fill="none" xmlns="http://www.w3.org/2000/svg">
<rect x="0.75" y="0.75" width="64.5" height="64.5" rx="32.25" stroke="#ECECEC" stroke-width="1.5"/>
<path d="M33.0002 25C38.8912 25 43.6668 23.8061 43.6668 22.3334C43.6668 20.8606 38.8912 19.6667 33.0002 19.6667C27.1091 19.6667 22.3335 20.8606 22.3335 22.3334C22.3335 23.8061 27.1091 25 33.0002 25Z" stroke="#0052CC" stroke-width="1.5"/>
<path d="M33 33.6666C34.1045 33.6666 35 32.7712 35 31.6666C35 30.3333 33 28.3333 33 28.3333C33 28.3333 31 30.3333 31 31.6666C31 32.7712 31.8955 33.6666 33 33.6666Z" stroke="#0052CC" stroke-width="1.5" stroke-linecap="round" stroke-linejoin="round"/>
<path d="M42.3335 23.6667V31.062C43.1831 31.6362 43.6668 32.297 43.6668 33C43.6668 35.2092 38.8912 37 33.0002 37C27.1091 37 22.3335 35.2092 22.3335 33C22.3335 32.297 22.8173 31.6362 23.6668 31.062V23.6667" stroke="#0052CC" stroke-width="1.5" stroke-linecap="round" stroke-linejoin="round"/>
<path d="M42.3335 35V40.3953C43.1831 40.9695 43.6668 41.6303 43.6668 42.3333C43.6668 44.5425 38.8912 46.3333 33.0002 46.3333C27.1091 46.3333 22.3335 44.5425 22.3335 42.3333C22.3335 41.6303 22.8173 40.9695 23.6668 40.3953V35" stroke="#0052CC" stroke-width="1.5" stroke-linecap="round" stroke-linejoin="round"/>
</svg>
