<svg width="66" height="66" viewBox="0 0 66 66" fill="none" xmlns="http://www.w3.org/2000/svg">
<rect x="0.75" y="0.75" width="64.5" height="64.5" rx="32.25" stroke="#ECECEC" stroke-width="1.5"/>
<path d="M19.6667 33C19.6667 29.2288 19.6667 27.3431 20.8383 26.1716C22.0099 25 23.8955 25 27.6667 25H34.3334C38.1046 25 39.9902 25 41.1618 26.1716C42.3334 27.3431 42.3334 29.2288 42.3334 33C42.3334 36.7712 42.3334 38.6568 41.1618 39.8284C39.9902 41 38.1046 41 34.3334 41H27.6667C23.8955 41 22.0099 41 20.8383 39.8284C19.6667 38.6568 19.6667 36.7712 19.6667 33Z" stroke="#0052CC" stroke-width="1.5" stroke-linecap="round"/>
<path d="M42.3333 29.6666L43.7029 29.8949C44.6113 30.0463 45.0654 30.122 45.4101 30.3422C45.749 30.5588 46.0149 30.8725 46.1727 31.2425C46.3333 31.6186 46.3333 32.079 46.3333 33C46.3333 33.9209 46.3333 34.3813 46.1727 34.7574C46.0149 35.1274 45.749 35.4412 45.4101 35.6577C45.0654 35.878 44.6113 35.9537 43.7029 36.105L42.3333 36.3333" stroke="#0052CC" stroke-width="1.5" stroke-linecap="round"/>
<path d="M25 30.3334V35.6667" stroke="#0052CC" stroke-width="1.5" stroke-linecap="round"/>
<path d="M29 30.3334V35.6667" stroke="#0052CC" stroke-width="1.5" stroke-linecap="round"/>
<path d="M33 30.3334V35.6667" stroke="#0052CC" stroke-width="1.5" stroke-linecap="round"/>
<path d="M37 30.3334V35.6667" stroke="#0052CC" stroke-width="1.5" stroke-linecap="round"/>
</svg>
