<svg width="67" height="66" viewBox="0 0 67 66" fill="none" xmlns="http://www.w3.org/2000/svg">
<rect x="0.5" width="66" height="66" rx="33" fill="#E6EEFA"/>
<path d="M20.1665 33C20.1665 29.2288 20.1665 27.3431 21.3381 26.1716C22.5097 25 24.3953 25 28.1665 25H34.8332C38.6044 25 40.49 25 41.6616 26.1716C42.8332 27.3431 42.8332 29.2288 42.8332 33C42.8332 36.7712 42.8332 38.6568 41.6616 39.8284C40.49 41 38.6044 41 34.8332 41H28.1665C24.3953 41 22.5097 41 21.3381 39.8284C20.1665 38.6568 20.1665 36.7712 20.1665 33Z" stroke="#0052CC" stroke-width="1.5" stroke-linecap="round"/>
<path d="M42.8335 29.6665L44.2031 29.8948C45.1115 30.0462 45.5656 30.1219 45.9103 30.3421C46.2492 30.5586 46.5151 30.8724 46.673 31.2424C46.8335 31.6185 46.8335 32.0789 46.8335 32.9998C46.8335 33.9208 46.8335 34.3812 46.673 34.7573C46.5151 35.1273 46.2492 35.441 45.9103 35.6576C45.5656 35.8778 45.1115 35.9536 44.2031 36.1049L42.8335 36.3332" stroke="#0052CC" stroke-width="1.5" stroke-linecap="round"/>
<path d="M25.5 30.3335V35.6668" stroke="#0052CC" stroke-width="1.5" stroke-linecap="round"/>
<path d="M29.5 30.3335V35.6668" stroke="#0052CC" stroke-width="1.5" stroke-linecap="round"/>
<path d="M33.5 30.3335V35.6668" stroke="#0052CC" stroke-width="1.5" stroke-linecap="round"/>
<path d="M37.5 30.3335V35.6668" stroke="#0052CC" stroke-width="1.5" stroke-linecap="round"/>
</svg>
