<svg width="32" height="33" viewBox="0 0 32 33" fill="none" xmlns="http://www.w3.org/2000/svg">
<path d="M4.66699 13.8334V20.5C4.66699 24.2712 4.66699 26.1568 5.83857 27.3284C7.01014 28.5 8.89575 28.5 12.667 28.5H19.3336C23.1048 28.5 24.9906 28.5 26.162 27.3284C27.3336 26.1568 27.3336 24.2712 27.3336 20.5V13.8334" stroke="#0052CC" stroke-width="1.5" stroke-linecap="round" stroke-linejoin="round"/>
<path d="M22.667 10.5024C22.667 12.3434 21.1746 13.8333 19.3336 13.8333C17.4927 13.8333 16.0003 12.3409 16.0003 10.5C16.0003 12.3409 14.5079 13.8333 12.667 13.8333C10.8261 13.8333 9.33366 12.3409 9.33366 10.5C9.33366 12.3409 7.76904 13.8333 5.83898 13.8333C4.80009 13.8333 3.86709 13.4009 3.22697 12.7145C2.12646 11.5344 2.83445 9.7987 3.75294 8.48455L4.26966 7.77801C5.44545 6.17026 6.03334 5.36639 6.88688 4.93325C7.74041 4.5001 8.73632 4.50023 10.7281 4.5005L21.2738 4.5019C23.265 4.50217 24.2606 4.5023 25.1138 4.93543C25.967 5.36857 26.5547 6.17218 27.7302 7.77942L28.2476 8.48705C29.1662 9.80118 29.8742 11.5369 28.7736 12.717C28.1335 13.4034 27.2006 13.8357 26.1616 13.8357C24.2315 13.8357 22.667 12.3434 22.667 10.5024Z" stroke="#0052CC" stroke-width="1.5" stroke-linecap="round" stroke-linejoin="round"/>
<path d="M19.9961 23.1666C19.0844 23.9762 17.6329 24.5 15.998 24.5C14.3631 24.5 12.9117 23.9762 12 23.1666" stroke="#0052CC" stroke-width="1.5" stroke-linecap="round" stroke-linejoin="round"/>
</svg>
