<svg width="66" height="66" viewBox="0 0 66 66" fill="none" xmlns="http://www.w3.org/2000/svg">
<rect x="0.75" y="0.75" width="64.5" height="64.5" rx="32.25" stroke="#ECECEC" stroke-width="1.5"/>
<path d="M33 46.3333C31.9091 46.3333 30.8669 45.893 28.7826 45.0126C23.5942 42.8209 21 41.725 21 39.8817C21 39.3656 21 30.4193 21 26.3333M33 46.3333C34.0909 46.3333 35.1331 45.893 37.2175 45.0126C42.4059 42.8209 45 41.725 45 39.8817V26.3333M33 46.3333V32.1397" stroke="#0052CC" stroke-width="1.5" stroke-linecap="round" stroke-linejoin="round"/>
<path d="M28.1012 29.9219L24.2063 28.0372C22.0688 27.0028 21 26.4857 21 25.6667C21 24.8477 22.0688 24.3306 24.2063 23.2962L28.1012 21.4115C30.5051 20.2483 31.7071 19.6667 33 19.6667C34.2929 19.6667 35.4949 20.2483 37.8988 21.4115L41.7937 23.2962C43.9312 24.3306 45 24.8477 45 25.6667C45 26.4857 43.9312 27.0028 41.7937 28.0372L37.8988 29.9219C35.4949 31.0851 34.2929 31.6667 33 31.6667C31.7071 31.6667 30.5051 31.0851 28.1012 29.9219Z" stroke="#0052CC" stroke-width="1.5" stroke-linecap="round" stroke-linejoin="round"/>
<path d="M25 33L27.6667 34.3333" stroke="#0052CC" stroke-width="1.5" stroke-linecap="round" stroke-linejoin="round"/>
<path d="M39.6668 22.3333L26.3335 29" stroke="#0052CC" stroke-width="1.5" stroke-linecap="round" stroke-linejoin="round"/>
</svg>
