<svg width="66" height="66" viewBox="0 0 66 66" fill="none" xmlns="http://www.w3.org/2000/svg">
<rect x="0.75" y="0.75" width="64.5" height="64.5" rx="32.25" stroke="#ECECEC" stroke-width="1.5"/>
<path d="M23.8571 35.6667C22.8897 34.0776 22.3333 32.2158 22.3333 30.2252C22.3333 24.3939 27.1089 19.6667 32.9999 19.6667C38.891 19.6667 43.6666 24.3939 43.6666 30.2252C43.6666 32.2158 43.1102 34.0776 42.1427 35.6667" stroke="#0052CC" stroke-width="1.5" stroke-linecap="round"/>
<path d="M26.8439 39.7976C26.7214 39.4288 26.6602 39.2444 26.6673 39.095C26.6824 38.779 26.8816 38.5016 27.1755 38.3873C27.3145 38.3333 27.5081 38.3333 27.8955 38.3333H38.1046C38.4921 38.3333 38.6857 38.3333 38.8246 38.3873C39.1186 38.5016 39.3178 38.779 39.3329 39.095C39.3399 39.2444 39.2787 39.4288 39.1562 39.7976C38.9298 40.4792 38.8166 40.8201 38.6421 41.096C38.2763 41.6741 37.703 42.0889 37.0409 42.2544C36.7247 42.3333 36.3667 42.3333 35.6509 42.3333H30.3493C29.6333 42.3333 29.2754 42.3333 28.9593 42.2544C28.2972 42.0889 27.7238 41.6741 27.3581 41.096C27.1835 40.8201 27.0703 40.4792 26.8439 39.7976Z" stroke="#0052CC" stroke-width="1.5"/>
<path d="M37 42.3333L36.8276 43.1954C36.6391 44.1382 36.5448 44.6096 36.3335 44.9821C36.0069 45.558 35.4776 45.9918 34.8488 46.1992C34.4421 46.3333 33.9615 46.3333 33 46.3333C32.0385 46.3333 31.5579 46.3333 31.1512 46.1992C30.5224 45.9918 29.9931 45.558 29.6665 44.9821C29.4553 44.6096 29.361 44.1382 29.1724 43.1954L29 42.3333" stroke="#0052CC" stroke-width="1.5"/>
<path d="M33 38.3334V31.6667" stroke="#0052CC" stroke-width="1.5" stroke-linecap="round" stroke-linejoin="round"/>
</svg>
