<svg width="66" height="66" viewBox="0 0 66 66" fill="none" xmlns="http://www.w3.org/2000/svg">
<rect x="0.75" y="0.75" width="64.5" height="64.5" rx="32.25" stroke="#ECECEC" stroke-width="1.5"/>
<path d="M26.3335 40.3333H37.0002V37H20.0002C19.6904 37 19.5355 37 19.4067 37.0256C18.8778 37.1308 18.4643 37.5443 18.3591 38.0732C18.3335 38.202 18.3335 38.3569 18.3335 38.6667C18.3335 38.9764 18.3335 39.1313 18.3591 39.2601C18.4643 39.7891 18.8778 40.2025 19.4067 40.3077C19.5355 40.3333 19.6904 40.3333 20.0002 40.3333H21.0002" stroke="#0052CC" stroke-width="1.5" stroke-linecap="round" stroke-linejoin="round"/>
<path d="M39.6667 40.3333H37V29.6667C37 28.4096 37 27.7811 37.3905 27.3905C37.7811 27 38.4096 27 39.6667 27H40.6469C42.1219 27 42.8593 27 43.4707 27.3461C44.082 27.6923 44.4615 28.3246 45.2203 29.5894L46.9067 32.4C47.2843 33.0293 47.4732 33.3441 47.5699 33.6935C47.6667 34.0428 47.6667 34.4099 47.6667 35.1439V37.6667C47.6667 38.9237 47.6667 39.5523 47.2761 39.9428C46.8856 40.3333 46.2571 40.3333 45 40.3333M39.6667 40.3333C39.6667 41.8061 40.8605 43 42.3333 43C43.8061 43 45 41.8061 45 40.3333M39.6667 40.3333C39.6667 38.8605 40.8605 37.6667 42.3333 37.6667C43.8061 37.6667 45 38.8605 45 40.3333M47 33.6667H43.6667C42.4096 33.6667 41.7811 33.6667 41.3905 33.2761C41 32.8856 41 32.2571 41 31V30.3333" stroke="#0052CC" stroke-width="1.5" stroke-linecap="round" stroke-linejoin="round"/>
<path d="M26.3333 40.3334C26.3333 41.8062 25.1394 43 23.6667 43C22.1939 43 21 41.8062 21 40.3334C21 38.8606 22.1939 37.6667 23.6667 37.6667C25.1394 37.6667 26.3333 38.8606 26.3333 40.3334Z" stroke="#0052CC" stroke-width="1.5" stroke-linecap="round" stroke-linejoin="round"/>
<path d="M18.6044 25.7363C18.4295 26.5408 18.3335 27.4168 18.3335 28.3333C18.3335 29.2499 18.4295 30.1259 18.6044 30.9304C18.8298 31.9673 18.9425 32.4859 19.6751 33.0763C20.4076 33.6667 21.1439 33.6667 22.6166 33.6667H29.3838C30.8564 33.6667 31.5927 33.6667 32.3252 33.0763C33.0578 32.4859 33.1706 31.9673 33.3959 30.9304C33.5708 30.1259 33.6668 29.2499 33.6668 28.3333C33.6668 27.4168 33.5708 26.5408 33.3959 25.7363C33.1706 24.6993 33.0578 24.1808 32.3252 23.5904C31.5927 23 30.8564 23 29.3838 23H22.6166C21.1439 23 20.4076 23 19.6751 23.5904C18.9425 24.1808 18.8298 24.6993 18.6044 25.7363Z" stroke="#0052CC" stroke-width="1.5" stroke-linecap="round" stroke-linejoin="round"/>
<path d="M28.6668 23V33.6667M23.3335 33.6667V23" stroke="#0052CC" stroke-width="1.5" stroke-linecap="round" stroke-linejoin="round"/>
</svg>
