<svg width="32" height="33" viewBox="0 0 32 33" fill="none" xmlns="http://www.w3.org/2000/svg">
<path d="M9.33301 23.8333H19.9997V20.5H2.99967C2.6899 20.5 2.53502 20.5 2.40622 20.5256C1.8773 20.6308 1.46383 21.0443 1.35862 21.5732C1.33301 21.702 1.33301 21.8569 1.33301 22.1667C1.33301 22.4764 1.33301 22.6313 1.35862 22.7601C1.46383 23.2891 1.8773 23.7025 2.40622 23.8077C2.53502 23.8333 2.6899 23.8333 2.99967 23.8333H3.99967" stroke="#0052CC" stroke-width="1.5" stroke-linecap="round" stroke-linejoin="round"/>
<path d="M22.6667 23.8333H20V13.1667C20 11.9096 20 11.2811 20.3905 10.8905C20.7811 10.5 21.4096 10.5 22.6667 10.5H23.6469C25.1219 10.5 25.8593 10.5 26.4707 10.8461C27.082 11.1923 27.4615 11.8246 28.2203 13.0894L29.9067 15.9C30.2843 16.5293 30.4732 16.8441 30.5699 17.1935C30.6667 17.5428 30.6667 17.9099 30.6667 18.6439V21.1667C30.6667 22.4237 30.6667 23.0523 30.2761 23.4428C29.8856 23.8333 29.2571 23.8333 28 23.8333M22.6667 23.8333C22.6667 25.3061 23.8605 26.5 25.3333 26.5C26.8061 26.5 28 25.3061 28 23.8333M22.6667 23.8333C22.6667 22.3605 23.8605 21.1667 25.3333 21.1667C26.8061 21.1667 28 22.3605 28 23.8333M30 17.1667H26.6667C25.4096 17.1667 24.7811 17.1667 24.3905 16.7761C24 16.3856 24 15.7571 24 14.5V13.8333" stroke="#0052CC" stroke-width="1.5" stroke-linecap="round" stroke-linejoin="round"/>
<path d="M9.33333 23.8333C9.33333 25.3061 8.13943 26.5 6.66667 26.5C5.19391 26.5 4 25.3061 4 23.8333C4 22.3605 5.19391 21.1666 6.66667 21.1666C8.13943 21.1666 9.33333 22.3605 9.33333 23.8333Z" stroke="#0052CC" stroke-width="1.5" stroke-linecap="round" stroke-linejoin="round"/>
<path d="M1.60393 9.23628C1.42903 10.0408 1.33301 10.9168 1.33301 11.8333C1.33301 12.7499 1.42903 13.6259 1.60393 14.4304C1.82934 15.4673 1.94205 15.9859 2.67459 16.5763C3.40714 17.1667 4.14345 17.1667 5.61607 17.1667H12.3833C13.8559 17.1667 14.5922 17.1667 15.3247 16.5763C16.0573 15.9859 16.1701 15.4673 16.3954 14.4304C16.5703 13.6259 16.6663 12.7499 16.6663 11.8333C16.6663 10.9168 16.5703 10.0408 16.3954 9.23628C16.1701 8.19931 16.0573 7.68083 15.3247 7.09041C14.5922 6.5 13.8559 6.5 12.3833 6.5H5.61607C4.14345 6.5 3.40714 6.5 2.67459 7.09041C1.94205 7.68083 1.82934 8.19931 1.60393 9.23628Z" stroke="#0052CC" stroke-width="1.5" stroke-linecap="round" stroke-linejoin="round"/>
<path d="M11.6663 6.5V17.1667M6.33301 17.1667V6.5" stroke="#0052CC" stroke-width="1.5" stroke-linecap="round" stroke-linejoin="round"/>
</svg>
