<svg width="66" height="66" viewBox="0 0 66 66" fill="none" xmlns="http://www.w3.org/2000/svg">
<rect x="0.75" y="0.75" width="64.5" height="64.5" rx="32.25" stroke="#ECECEC" stroke-width="1.5"/>
<path d="M37.6667 34.3333C42.4531 34.3333 46.3333 33.1394 46.3333 31.6667C46.3333 30.1939 42.4531 29 37.6667 29C32.8802 29 29 30.1939 29 31.6667C29 33.1394 32.8802 34.3333 37.6667 34.3333Z" stroke="#0052CC" stroke-width="1.5"/>
<path d="M46.3333 37.6667C46.3333 39.1395 42.4532 40.3334 37.6667 40.3334C32.8801 40.3334 29 39.1395 29 37.6667" stroke="#0052CC" stroke-width="1.5"/>
<path d="M46.3333 31.6667V43.4C46.3333 45.02 42.4532 46.3334 37.6667 46.3334C32.8801 46.3334 29 45.02 29 43.4V31.6667" stroke="#0052CC" stroke-width="1.5"/>
<path d="M28.3334 25C33.1199 25 37.0001 23.8061 37.0001 22.3334C37.0001 20.8606 33.1199 19.6667 28.3334 19.6667C23.5469 19.6667 19.6667 20.8606 19.6667 22.3334C19.6667 23.8061 23.5469 25 28.3334 25Z" stroke="#0052CC" stroke-width="1.5"/>
<path d="M25.0001 31.6667C22.4777 31.3597 20.16 30.566 19.6667 29M25.0001 38.3333C22.4777 38.0264 20.16 37.2327 19.6667 35.6667" stroke="#0052CC" stroke-width="1.5" stroke-linecap="round"/>
<path d="M25.0001 45C22.4777 44.693 20.16 43.8993 19.6667 42.3333V22.3333" stroke="#0052CC" stroke-width="1.5" stroke-linecap="round"/>
<path d="M37 25V22.3333" stroke="#0052CC" stroke-width="1.5" stroke-linecap="round"/>
</svg>
