<svg width="32" height="33" viewBox="0 0 32 33" fill="none" xmlns="http://www.w3.org/2000/svg">
<path d="M10.667 9.83337V28.5" stroke="#0052CC" stroke-width="1.5" stroke-linecap="round" stroke-linejoin="round"/>
<path d="M16 24.5V28.5" stroke="#0052CC" stroke-width="1.5" stroke-linecap="round" stroke-linejoin="round"/>
<path d="M4 28.5H20" stroke="#0052CC" stroke-width="1.5" stroke-linecap="round" stroke-linejoin="round"/>
<path d="M5.33301 17.8334V19.1128C5.33301 20.2403 5.33301 20.804 5.60111 21.2683C5.86922 21.7324 6.35753 22.0142 7.33411 22.5776L10.6663 24.5" stroke="#0052CC" stroke-width="1.5" stroke-linecap="round" stroke-linejoin="round"/>
<path d="M16.0003 12.5V16.4461C16.0003 17.5736 16.0003 18.1373 15.7322 18.6016C15.4641 19.0657 14.9758 19.3475 13.9993 19.9109L10.667 21.8333" stroke="#0052CC" stroke-width="1.5" stroke-linecap="round" stroke-linejoin="round"/>
<path d="M24 12.5C26.2091 12.5 28 10.7091 28 8.5C28 6.29086 26.2091 4.5 24 4.5C21.7909 4.5 20 6.29086 20 8.5C20 10.7091 21.7909 12.5 24 12.5Z" stroke="#0052CC" stroke-width="1.5" stroke-linecap="round" stroke-linejoin="round"/>
</svg>
