<svg width="32" height="33" viewBox="0 0 32 33" fill="none" xmlns="http://www.w3.org/2000/svg">
<path d="M16.0002 11.1666C21.8912 11.1666 26.6668 9.37577 26.6668 7.16663C26.6668 4.95749 21.8912 3.16663 16.0002 3.16663C10.1091 3.16663 5.3335 4.95749 5.3335 7.16663C5.3335 9.37577 10.1091 11.1666 16.0002 11.1666Z" stroke="#0052CC" stroke-width="1.5"/>
<path d="M26.6668 16.5C26.6668 18.7092 21.8912 20.5 16.0002 20.5C10.1091 20.5 5.3335 18.7092 5.3335 16.5" stroke="#0052CC" stroke-width="1.5"/>
<path d="M26.6668 7.16663V25.8333C26.6668 28.0425 21.8912 29.8333 16.0002 29.8333C10.1091 29.8333 5.3335 28.0425 5.3335 25.8333V7.16663" stroke="#0052CC" stroke-width="1.5"/>
<path d="M10.6665 11.1666V13.8333" stroke="#0052CC" stroke-width="1.5" stroke-linecap="round"/>
<path d="M10.6665 20.5V23.1667" stroke="#0052CC" stroke-width="1.5" stroke-linecap="round"/>
</svg>
