<svg width="95" height="92" viewBox="0 0 95 92" fill="none" xmlns="http://www.w3.org/2000/svg">
<rect x="0.5" y="0.5" width="94" height="91" rx="32.5" fill="white"/>
<rect x="0.5" y="0.5" width="94" height="91" rx="32.5" stroke="#E7E7E7"/>
<path d="M58.5 42.3335C58.5 42.3335 47.5 49.6668 47.5 62.5002" stroke="#098E00" stroke-width="1.5" stroke-linecap="round" stroke-linejoin="round"/>
<path d="M42.6398 44.5012C39.6864 46.7133 35.4796 46.4767 32.7942 43.7914C28.3509 39.348 29.2395 29.5725 29.2395 29.5725C29.2395 29.5725 39.015 28.6839 43.4584 33.1272C45.2175 34.8864 45.9259 37.2984 45.5832 39.5833" stroke="#098E00" stroke-width="1.5" stroke-linecap="round" stroke-linejoin="round"/>
<path d="M52.9339 47.4988C50.5143 44.8692 50.5798 40.7747 53.1301 38.2242C57.0798 34.2746 65.7691 35.0645 65.7691 35.0645C65.7691 35.0645 66.5591 43.7538 62.6094 47.7035C61.2278 49.0851 59.3931 49.7374 57.5836 49.6606" stroke="#098E00" stroke-width="1.5" stroke-linecap="round" stroke-linejoin="round"/>
<path d="M36.5 36.8335C36.5 36.8335 47.5 46.0002 47.5 62.5002" stroke="#098E00" stroke-width="1.5" stroke-linecap="round" stroke-linejoin="round"/>
</svg>
