<svg width="82" height="82" viewBox="0 0 82 82" fill="none" xmlns="http://www.w3.org/2000/svg">
<rect width="82" height="82" rx="38" fill="#FFB0B0"/>
<path d="M43.5 39.3333C43.5 40.7139 42.3807 41.8333 41 41.8333C39.6193 41.8333 38.5 40.7139 38.5 39.3333C38.5 37.9526 39.6193 36.8333 41 36.8333C42.3807 36.8333 43.5 37.9526 43.5 39.3333Z" stroke="#3B3B3B" stroke-width="2"/>
<path d="M56 38.4999C55.9805 38.1793 55.9513 37.8611 55.9127 37.546C55.3663 33.0967 52.934 29.2421 49.4538 26.8333M32.5463 26.8333C29.0661 29.2421 26.6338 33.0967 26.0875 37.546C26.0488 37.8611 26.0195 38.1793 26.0001 38.4999" stroke="#3B3B3B" stroke-width="2" stroke-linecap="round"/>
<path d="M41 36.8334V32.6667" stroke="#3B3B3B" stroke-width="2" stroke-linecap="round"/>
<path d="M37.9983 27.6501L38.2512 30.179C38.3443 31.1095 38.3908 31.5748 38.6172 31.9179C38.7722 32.1528 38.9842 32.3446 39.2333 32.4755C39.5973 32.6666 40.0648 32.6666 41 32.6666C41.9352 32.6666 42.4027 32.6666 42.7667 32.4755C43.0158 32.3446 43.2278 32.1528 43.3828 31.9179C43.6092 31.5748 43.6557 31.1095 43.7488 30.179L44.0017 27.65C44.1395 26.2716 44.2085 25.5824 43.8887 25.0909C43.7923 24.9428 43.673 24.811 43.5352 24.7003C43.078 24.3333 42.3853 24.3333 41 24.3333C39.6147 24.3333 38.922 24.3333 38.4648 24.7003C38.327 24.811 38.2077 24.9428 38.1113 25.0909C37.7915 25.5824 37.8605 26.2716 37.9983 27.6501Z" stroke="#3B3B3B" stroke-width="2" stroke-linecap="round"/>
<path d="M38.8339 40.5833L35.2253 42.6666" stroke="#3B3B3B" stroke-width="2" stroke-linecap="round"/>
<path d="M32.385 47.7747L34.4487 46.2912C35.208 45.7453 35.5877 45.4723 35.7716 45.1048C35.8975 44.8532 35.9577 44.5737 35.9464 44.2923C35.93 43.8817 35.6962 43.4767 35.2286 42.6668C34.761 41.857 34.5272 41.452 34.1798 41.2325C33.9418 41.0822 33.6697 40.9945 33.3888 40.9777C32.9785 40.9532 32.5523 41.1455 31.6999 41.5302L29.3833 42.5757C28.1206 43.1455 27.4893 43.4303 27.2236 43.953C27.1435 44.1105 27.089 44.2798 27.062 44.4545C26.9727 45.034 27.3191 45.6338 28.0117 46.8335C28.7044 48.0333 29.0507 48.6332 29.5972 48.8455C29.7619 48.9095 29.9358 48.947 30.1122 48.9563C30.6977 48.9875 31.2601 48.5832 32.385 47.7747Z" stroke="#3B3B3B" stroke-width="2" stroke-linecap="round"/>
<path d="M43.1663 40.5833L46.7748 42.6666" stroke="#3B3B3B" stroke-width="2" stroke-linecap="round"/>
<path d="M52.6165 42.574L50.3 41.5285C49.4476 41.1438 49.0213 40.9515 48.611 40.976C48.3301 40.9928 48.058 41.0805 47.8201 41.2308C47.4726 41.4505 47.2388 41.8553 46.7713 42.6651C46.3036 43.4751 46.0698 43.88 46.0535 44.2908C46.0421 44.572 46.1023 44.8515 46.2283 45.1031C46.4121 45.4708 46.7918 45.7436 47.5511 46.2895L49.6148 47.773C50.7396 48.5816 51.3021 48.9858 51.8876 48.9546C52.0641 48.9453 52.238 48.9078 52.4026 48.8438C52.9491 48.6315 53.2955 48.0316 53.9881 46.8318C54.6808 45.6321 55.0271 45.0323 54.9378 44.4528C54.9108 44.2781 54.8563 44.109 54.7763 43.9513C54.5106 43.4288 53.8791 43.1438 52.6165 42.574Z" stroke="#3B3B3B" stroke-width="2" stroke-linecap="round"/>
<path d="M41 41.8333V57.6666" stroke="#3B3B3B" stroke-width="2" stroke-linecap="round"/>
<path d="M51 57.6667H31" stroke="#3B3B3B" stroke-width="2" stroke-linecap="round"/>
</svg>
