<svg width="20" height="20" viewBox="0 0 20 20" fill="none" xmlns="http://www.w3.org/2000/svg">
<path d="M11.25 9.16663C11.25 9.85696 10.6903 10.4166 10 10.4166C9.30967 10.4166 8.75 9.85696 8.75 9.16663C8.75 8.47629 9.30967 7.91663 10 7.91663C10.6903 7.91663 11.25 8.47629 11.25 9.16663Z" stroke="white" stroke-width="2"/>
<path d="M18 8.83333C17.9902 8.673 17.9756 8.51392 17.9563 8.35638C17.6831 6.1317 16.467 4.2044 14.7269 3M6.27313 3C4.53303 4.2044 3.31689 6.1317 3.0437 8.35638C3.02436 8.51392 3.00974 8.673 3 8.83333" stroke="white" stroke-linecap="round"/>
<path d="M9.97583 8.25008V6.16675" stroke="white" stroke-linecap="round"/>
<path d="M8.475 3.6584L8.60142 4.92287C8.648 5.38813 8.67125 5.62077 8.78442 5.79231C8.86192 5.90976 8.96792 6.00567 9.0925 6.0711C9.2745 6.16667 9.50825 6.16667 9.97583 6.16667C10.4434 6.16667 10.6772 6.16667 10.8592 6.0711C10.9837 6.00567 11.0897 5.90976 11.1672 5.79231C11.2804 5.62077 11.3037 5.38813 11.3502 4.92287L11.4767 3.65839C11.5456 2.96918 11.5801 2.62456 11.4202 2.37884C11.372 2.30478 11.3123 2.23886 11.2434 2.18353C11.0148 2 10.6685 2 9.97583 2C9.28317 2 8.93683 2 8.70825 2.18353C8.63933 2.23886 8.57967 2.30478 8.5315 2.37884C8.37158 2.62456 8.40608 2.96918 8.475 3.6584Z" stroke="white" stroke-linecap="round"/>
<path d="M8.91693 9.79163L7.11267 10.8333" stroke="white" stroke-linecap="round"/>
<path d="M5.66839 13.7207L6.70023 12.979C7.0799 12.706 7.26973 12.5695 7.36169 12.3858C7.42465 12.26 7.45472 12.1202 7.4491 11.9795C7.44089 11.7742 7.32399 11.5717 7.0902 11.1668C6.85641 10.7619 6.73951 10.5594 6.56577 10.4496C6.44681 10.3745 6.31076 10.3306 6.17031 10.3222C5.96514 10.31 5.75204 10.4061 5.32585 10.5985L4.16756 11.1212C3.53621 11.4061 3.22054 11.5485 3.08768 11.8099C3.04764 11.8886 3.02038 11.9733 3.00691 12.0606C2.96226 12.3504 3.13543 12.6503 3.48176 13.2501C3.82809 13.85 4.00126 14.15 4.2745 14.2561C4.35686 14.2881 4.44378 14.3069 4.53201 14.3115C4.82475 14.3271 5.10596 14.125 5.66839 13.7207Z" stroke="white" stroke-linecap="round"/>
<path d="M11.5831 9.875L13.3874 10.9167" stroke="white" stroke-linecap="round"/>
<path d="M15.7841 11.1204L14.6259 10.5976C14.1997 10.4053 13.9865 10.3091 13.7814 10.3214C13.641 10.3298 13.5049 10.3736 13.386 10.4488C13.2122 10.5586 13.0953 10.761 12.8615 11.1659C12.6277 11.5709 12.5108 11.7734 12.5026 11.9788C12.497 12.1194 12.527 12.2591 12.59 12.3849C12.682 12.5688 12.8718 12.7052 13.2515 12.9781L14.2833 13.7199C14.8457 14.1242 15.127 14.3263 15.4197 14.3107C15.508 14.306 15.5949 14.2873 15.6772 14.2553C15.9505 14.1491 16.1236 13.8492 16.47 13.2493C16.8163 12.6494 16.9895 12.3495 16.9448 12.0598C16.9313 11.9724 16.904 11.8879 16.864 11.809C16.7312 11.5478 16.4155 11.4053 15.7841 11.1204Z" stroke="white" stroke-linecap="round"/>
<path d="M9.97583 10.75V18.6667" stroke="white" stroke-linecap="round"/>
<path d="M15.5 18.4167H5.5" stroke="white" stroke-linecap="round"/>
</svg>
