<svg width="32" height="33" viewBox="0 0 32 33" fill="none" xmlns="http://www.w3.org/2000/svg">
<path d="M13.9501 17.8334L12.0914 20.2499C11.8923 20.5088 12.035 20.8815 12.3598 20.9504L14.3068 21.3636C14.6532 21.4371 14.7852 21.8496 14.5431 22.1015L12.237 24.5" stroke="#0052CC" stroke-width="1.5" stroke-linecap="round" stroke-linejoin="round"/>
<path d="M5.33301 13.8334H21.333" stroke="#0052CC" stroke-width="1.5" stroke-linecap="round" stroke-linejoin="round"/>
<path d="M5.33301 28.5V12.5C5.33301 8.72876 5.33301 6.84315 6.50458 5.67157C7.67615 4.5 9.56177 4.5 13.333 4.5C17.1042 4.5 18.9898 4.5 20.1614 5.67157C21.333 6.84315 21.333 8.72876 21.333 12.5V28.5H5.33301Z" stroke="#0052CC" stroke-width="1.5"/>
<path d="M2.66699 28.5H24.0003" stroke="#0052CC" stroke-width="1.5" stroke-linecap="round" stroke-linejoin="round"/>
<path d="M21.333 19.1667H23.5553C23.9686 19.1667 24.1753 19.1667 24.3447 19.2121C24.8049 19.3353 25.1643 19.6948 25.2875 20.1549C25.333 20.3244 25.333 20.5311 25.333 20.9444V22.5C25.333 23.6045 26.2285 24.5 27.333 24.5C28.4375 24.5 29.333 23.6045 29.333 22.5V14.1148C29.333 13.3133 29.333 12.9125 29.2186 12.5346C29.1042 12.1567 28.8818 11.8233 28.4373 11.1564L27.4059 9.6094C26.9439 8.91631 26.1659 8.5 25.333 8.5" stroke="#0052CC" stroke-width="1.5" stroke-linecap="round" stroke-linejoin="round"/>
</svg>
