<svg width="32" height="33" viewBox="0 0 32 33" fill="none" xmlns="http://www.w3.org/2000/svg">
<path d="M2.66699 23.8334H10.667M10.667 27.8334H2.66699" stroke="#3375D6" stroke-width="1.5" stroke-linecap="round" stroke-linejoin="round"/>
<path d="M21.333 23.8334H29.333M29.333 27.8334H21.333" stroke="#3375D6" stroke-width="1.5" stroke-linecap="round" stroke-linejoin="round"/>
<path d="M18 16.5H14V21.8333H18V16.5Z" stroke="#3375D6" stroke-width="1.5" stroke-linecap="round" stroke-linejoin="round"/>
<path d="M22.6663 9.83329C22.6663 13.5152 19.6815 16.5 15.9997 16.5C12.3178 16.5 9.33301 13.5152 9.33301 9.83329C9.33301 6.1514 12.3178 3.16663 15.9997 3.16663C19.6815 3.16663 22.6663 6.1514 22.6663 9.83329Z" stroke="#3375D6" stroke-width="1.5"/>
<path d="M16 9.83337L18 7.83337" stroke="#3375D6" stroke-width="1.5" stroke-linecap="round" stroke-linejoin="round"/>
<path d="M18.667 21.8334H13.3337C12.0766 21.8334 11.448 21.8334 11.0575 22.2239C10.667 22.6144 10.667 23.243 10.667 24.5V27.1667C10.667 28.4238 10.667 29.0523 11.0575 29.4428C11.448 29.8334 12.0766 29.8334 13.3337 29.8334H18.667C19.9241 29.8334 20.5526 29.8334 20.9431 29.4428C21.3337 29.0523 21.3337 28.4238 21.3337 27.1667V24.5C21.3337 23.243 21.3337 22.6144 20.9431 22.2239C20.5526 21.8334 19.9241 21.8334 18.667 21.8334Z" stroke="#3375D6" stroke-width="1.5" stroke-linecap="round" stroke-linejoin="round"/>
</svg>
