<svg width="66" height="66" viewBox="0 0 66 66" fill="none" xmlns="http://www.w3.org/2000/svg">
<rect x="0.75" y="0.75" width="64.5" height="64.5" rx="32.25" stroke="#ECECEC" stroke-width="1.5"/>
<path d="M33.0001 46.3333C25.6363 46.3333 19.6667 40.3637 19.6667 33C19.6667 29.2766 21.1929 25.9097 23.6539 23.4907M33.0001 46.3333C31.7161 45.3818 31.921 44.274 32.5651 43.1662C33.5555 41.4632 33.5555 41.4632 33.5555 39.1925C33.5555 36.9218 34.9049 35.8572 39.6667 36.8094C41.8063 37.2374 43.3655 34.2812 46.1431 35.2573M33.0001 46.3333C39.5945 46.3333 45.0707 41.5461 46.1431 35.2573M23.6539 23.4907C24.7863 23.6102 25.4203 24.2168 26.4734 25.3295C28.4726 27.442 30.4718 27.6183 31.8047 26.9141C33.8039 25.8579 32.1239 24.147 34.4703 23.2173C35.9089 22.6473 36.183 21.1546 35.5022 19.901M23.6539 23.4907C26.06 21.1256 29.3597 19.6666 33.0001 19.6666C33.8553 19.6666 34.6917 19.7471 35.5022 19.901M46.1431 35.2573C46.2682 34.5236 46.3334 33.7694 46.3334 33C46.3334 26.4914 41.6699 21.072 35.5022 19.901" stroke="#0052CC" stroke-width="1.5" stroke-linejoin="round"/>
</svg>
