<svg width="32" height="33" viewBox="0 0 32 33" fill="none" xmlns="http://www.w3.org/2000/svg">
<path d="M29.3332 16.5C29.3332 9.13616 23.3636 3.16663 15.9998 3.16663C8.63604 3.16663 2.6665 9.13616 2.6665 16.5C2.6665 23.8637 8.63604 29.8333 15.9998 29.8333" stroke="#0052CC" stroke-width="1.5" stroke-linecap="round"/>
<path d="M26.6668 8.09861C25.4206 8.18844 23.8243 8.67095 22.7174 10.1037C20.7182 12.6914 18.7188 12.9074 17.386 12.0448C15.3867 10.7509 17.0668 8.65511 14.7203 7.51616C13.191 6.77385 12.9778 4.75389 13.829 3.16663" stroke="#0052CC" stroke-width="1.5" stroke-linejoin="round"/>
<path d="M2.6665 15.1666C3.68317 16.0494 5.10712 16.8576 6.78482 16.8576C10.2511 16.8576 10.9443 17.5198 10.9443 20.169C10.9443 22.8182 10.9443 22.8182 11.6376 24.805C12.0885 26.0974 12.2461 27.3898 11.3473 28.5" stroke="#0052CC" stroke-width="1.5" stroke-linejoin="round"/>
<path d="M26.5319 27.0718L29.3335 29.8334M28.1446 23.2279C28.1446 26.2074 25.7244 28.6226 22.739 28.6226C19.7536 28.6226 17.3335 26.2074 17.3335 23.2279C17.3335 20.2486 19.7536 17.8334 22.739 17.8334C25.7244 17.8334 28.1446 20.2486 28.1446 23.2279Z" stroke="#0052CC" stroke-width="1.5" stroke-linecap="round"/>
</svg>
