<svg width="80" height="80" viewBox="0 0 80 80" fill="none" xmlns="http://www.w3.org/2000/svg">
<rect width="80" height="80" rx="40" fill="#B0C9EF"/>
<path d="M40 56.6666C30.7953 56.6666 23.3334 49.2046 23.3334 39.9999C23.3334 35.3457 25.2411 31.137 28.3173 28.1133M40 56.6666C38.395 55.4773 38.6512 54.0924 39.4564 52.7078C40.6944 50.5789 40.6944 50.5789 40.6944 47.7406C40.6944 44.9023 42.381 43.5714 48.3334 44.7618C51.0079 45.2968 52.9569 41.6014 56.4289 42.8216M40 56.6666C48.243 56.6666 55.0884 50.6826 56.4289 42.8216M28.3173 28.1133C29.7328 28.2627 30.5253 29.021 31.8416 30.4119C34.3407 33.0525 36.8397 33.2728 38.5059 32.3926C41.0049 31.0723 38.9049 28.9338 41.8379 27.7716C43.636 27.0591 43.9787 25.1932 43.1277 23.6262M28.3173 28.1133C31.325 25.1569 35.4495 23.3333 40 23.3333C41.069 23.3333 42.1145 23.4339 43.1277 23.6262M56.4289 42.8216C56.5852 41.9044 56.6667 40.9618 56.6667 39.9999C56.6667 31.8642 50.8374 25.09 43.1277 23.6262" stroke="#4F4F4F" stroke-width="2" stroke-linejoin="round"/>
</svg>
