<svg width="20" height="20" viewBox="0 0 20 20" fill="none" xmlns="http://www.w3.org/2000/svg">
<path d="M2 5.83329H4.38752C4.99312 5.83329 5.5739 5.53355 6.00212 5C6.61369 4.238 7.51829 3.97193 8.33879 4.3127L9.5 4.79498M2 13.3056H3.35057C4.31681 13.3056 4.79993 13.3056 5.25677 13.4344C5.27898 13.4406 5.30112 13.4471 5.32318 13.4538C5.77716 13.5917 6.17913 13.8507 6.98309 14.3689C8.55656 15.383 9.34333 15.89 10.2006 15.8283C10.241 15.8254 10.2813 15.8215 10.3216 15.8167C11.1747 15.7147 11.8433 15.0684 13.1805 13.7756L14.5 12.5" stroke="white" stroke-linecap="round"/>
<path d="M18.6667 5.86154H16.5694C15.6812 5.86154 15.0541 5.3789 14.417 4.73549C14.0043 4.31873 13.4776 4.0731 12.924 4.03928C12.305 4.00146 11.5878 3.94821 10.9867 4.11334C10.3176 4.29714 9.87588 4.80053 9.40854 5.32664L8.20262 6.68426C7.71029 7.23851 7.71029 8.13713 8.20262 8.69142C8.62754 9.16975 9.29329 9.244 9.79329 8.86867C10.1531 8.59867 10.562 8.16255 10.986 8.02521C11.4631 7.87063 11.7591 8.21792 12.0295 8.58325L13.963 11.1953C14.6806 12.1647 15.0394 12.6494 15.5299 12.908C16.0204 13.1667 16.5808 13.1667 17.7017 13.1667H18.6667" stroke="white" stroke-linecap="round"/>
</svg>
