<svg width="82" height="82" viewBox="0 0 82 82" fill="none" xmlns="http://www.w3.org/2000/svg">
<rect width="82" height="82" rx="38" fill="#FFB0B0"/>
<path d="M24.3333 32.6666H29.1084C30.3195 32.6666 31.4811 32.0671 32.3376 31C33.5607 29.476 35.3699 28.9439 37.0109 29.6254L39.3333 30.59M24.3333 47.6113H27.0344C28.9669 47.6113 29.9332 47.6113 30.8468 47.8688C30.8913 47.8813 30.9355 47.8943 30.9797 47.9076C31.8876 48.1834 32.6916 48.7014 34.2995 49.7378C37.4464 51.7659 39.02 52.7801 40.7345 52.6566C40.8153 52.6508 40.896 52.6429 40.9765 52.6334C42.6826 52.4294 44.0198 51.1368 46.6943 48.5513L49.3333 45.9999" stroke="#3B3B3B" stroke-width="2" stroke-linecap="round"/>
<path d="M57.6667 33.0563H53.472C51.6957 33.0563 50.4415 32.0911 49.1672 30.8042C48.3418 29.9707 47.2885 29.4795 46.1813 29.4118C44.9433 29.3362 43.5088 29.2297 42.3067 29.5599C40.9685 29.9275 40.085 30.9343 39.1503 31.9865L36.7385 34.7018C35.7538 35.8103 35.7538 37.6075 36.7385 38.7161C37.5883 39.6728 38.9198 39.8213 39.9198 39.0706C40.6395 38.5306 41.4572 37.6584 42.3052 37.3837C43.2595 37.0745 43.8515 37.7691 44.3923 38.4998L48.2593 43.7239C49.6945 45.6626 50.412 46.6321 51.393 47.1493C52.374 47.6666 53.4948 47.6666 55.7367 47.6666H57.6667" stroke="#3B3B3B" stroke-width="2" stroke-linecap="round"/>
</svg>
