<svg width="67" height="66" viewBox="0 0 67 66" fill="none" xmlns="http://www.w3.org/2000/svg">
<rect x="0.5" width="66" height="66" rx="33" fill="#E6EEFA"/>
<path d="M31.9513 43.3506H39.456C43.2764 43.3506 45.1866 43.3506 46.1161 42.3382C46.3769 42.0541 46.5789 41.7252 46.7114 41.3686C47.1834 40.0984 46.2558 38.4981 44.4004 35.2977M31.9513 43.3506L35.8417 40.3681M31.9513 43.3506L35.8417 46.3332M42.1526 31.4204L38.1758 24.5605C36.474 21.6248 35.623 20.1569 34.4336 19.8016C33.8305 19.6215 33.1844 19.6215 32.5813 19.8016C31.3918 20.1569 30.5409 21.6248 28.839 24.5605M42.1526 31.4204L37.5154 29.6751M42.1526 31.4204L42.9116 26.7017M26.5912 28.4378L22.4804 35.5289C20.7469 38.5192 19.8802 40.0142 20.2512 41.2149C20.3956 41.6824 20.6574 42.1086 21.0136 42.4566C21.9287 43.3506 23.7134 43.3506 27.2829 43.3506M26.5912 28.4378L27.3134 33.1618M26.5912 28.4378L21.9405 30.15" stroke="#0052CC" stroke-width="1.5" stroke-linecap="round" stroke-linejoin="round"/>
</svg>
