<svg width="33" height="33" viewBox="0 0 33 33" fill="none" xmlns="http://www.w3.org/2000/svg">
<path d="M11.6943 3.90267C13.6608 2.68421 15.3772 3.17523 16.4083 3.95738C16.8311 4.27807 17.0424 4.43843 17.1668 4.43843C17.2912 4.43843 17.5026 4.27807 17.9254 3.95738C18.9564 3.17523 20.6728 2.68421 22.6394 3.90267C25.2203 5.50177 25.8043 10.7773 19.8512 15.2281C18.7174 16.0758 18.1504 16.4995 17.1668 16.4995C16.1832 16.4995 15.6163 16.0758 14.4824 15.2281C8.52943 10.7773 9.11342 5.50177 11.6943 3.90267Z" stroke="#0052CC" stroke-width="1.5" stroke-linecap="round"/>
<path d="M5.8335 19.1666H9.02659C9.41879 19.1666 9.8056 19.255 10.1564 19.4248L12.879 20.7421C13.2298 20.9118 13.6166 21.0001 14.0088 21.0001H15.399C16.7435 21.0001 17.8335 22.0549 17.8335 23.356C17.8335 23.4085 17.7975 23.4548 17.7452 23.4692L14.3574 24.406C13.7496 24.574 13.0988 24.5154 12.5335 24.2418L9.62298 22.8337" stroke="#0052CC" stroke-width="1.5" stroke-linecap="round" stroke-linejoin="round"/>
<path d="M17.8335 22.5L23.9572 20.6186C25.0428 20.2803 26.2163 20.6814 26.8963 21.6231C27.388 22.3039 27.1878 23.279 26.4715 23.6923L16.4507 29.474C15.8134 29.8418 15.0614 29.9315 14.3604 29.7235L5.8335 27.1932" stroke="#0052CC" stroke-width="1.5" stroke-linecap="round" stroke-linejoin="round"/>
</svg>
