<svg width="80" height="80" viewBox="0 0 80 80" fill="none" xmlns="http://www.w3.org/2000/svg">
<rect width="80" height="80" rx="40" fill="#B0C9EF"/>
<path d="M45.4228 46.6682H28.7515C25.9893 46.6682 23.7501 48.9067 23.7501 51.6682C23.7501 54.4295 25.9893 56.6682 28.7515 56.6682H45.4228C48.1851 56.6682 50.4243 54.4295 50.4243 51.6682C50.4243 48.9067 48.1851 46.6682 45.4228 46.6682Z" stroke="#4F4F4F" stroke-width="2"/>
<path d="M41.794 31.0221L39.0114 28.4447C38.0639 27.5672 37.5902 27.1284 37.0034 26.8984C36.4166 26.6685 35.0444 26.6685 33.7528 26.6685H33.7593C30.6157 26.6685 29.0439 26.6685 28.0673 27.6448C27.0908 28.6211 27.0908 30.1924 27.0908 33.3351V35.0018C27.0908 38.1444 27.0908 39.7157 28.0673 40.6921C29.0439 41.6684 30.6157 41.6684 33.7593 41.6684H37.619C40.255 41.6684 41.573 41.6684 42.4764 40.9651C42.6939 40.7959 42.8894 40.6004 43.0585 40.3831C43.7622 39.4799 43.7622 38.1622 43.7622 35.5271C43.7622 34.3202 43.589 33.3206 43.3905 32.7713C43.1225 32.2524 42.6797 31.8423 41.794 31.0221ZM41.794 31.0221C41.794 31.0221 46.8634 25.4018 47.6235 24.7018C48.4659 24.0281 48.9239 23.3318 51.8247 23.3418C52.3764 23.3308 53.025 23.3318 53.7654 23.3318M53.7654 29.1618V30.0018M53.6852 39.1617V39.9017C53.6852 40.0577 53.7254 39.9817 53.7254 39.9817C53.9285 39.9899 54.5255 40.1417 54.5255 40.1417C54.5255 40.1417 56.346 40.7017 56.246 42.7017C56.191 43.8017 55.3197 44.7072 54.2654 44.9417C53.102 45.2006 51.7247 44.6017 51.2645 43.3417M53.7654 34.1718V35.0018" stroke="#4F4F4F" stroke-width="2" stroke-linecap="round"/>
<path d="M37.0795 51.6682H37.0945M30.4184 51.6682H30.4333M43.7405 51.6682H43.7555" stroke="#4F4F4F" stroke-width="3" stroke-linecap="round" stroke-linejoin="round"/>
</svg>
