<svg width="30" height="30" viewBox="0 0 30 30" fill="none" xmlns="http://www.w3.org/2000/svg">
<path d="M3 14.875C3 9.27707 3 6.47811 4.73905 4.73905C6.47811 3 9.27707 3 14.875 3C20.4729 3 23.2719 3 25.011 4.73905C26.75 6.47811 26.75 9.27707 26.75 14.875C26.75 20.4729 26.75 23.2719 25.011 25.011C23.2719 26.75 20.4729 26.75 14.875 26.75C9.27707 26.75 6.47811 26.75 4.73905 25.011C3 23.2719 3 20.4729 3 14.875Z" stroke="#141B34" stroke-width="2" stroke-linejoin="round"/>
<path d="M20.625 15C20.625 18.1066 18.1066 20.625 15 20.625C11.8934 20.625 9.375 18.1066 9.375 15C9.375 11.8934 11.8934 9.375 15 9.375C18.1066 9.375 20.625 11.8934 20.625 15Z" stroke="#141B34" stroke-width="2"/>
<path d="M21.8848 8.125H21.8735" stroke="#141B34" stroke-width="3" stroke-linecap="round" stroke-linejoin="round"/>
</svg>
