<svg width="80" height="80" viewBox="0 0 80 80" fill="none" xmlns="http://www.w3.org/2000/svg">
<rect width="80" height="80" rx="40" fill="#B0C9EF"/>
<path d="M34.3802 41.1227H33.6153C31.1424 41.1227 29.906 41.1227 29.3789 40.3073C28.8519 39.4922 29.3541 38.3563 30.3584 36.0847L33.3778 29.2554C34.2909 27.19 34.7475 26.1573 35.6333 25.5786C36.519 25 37.6432 25 39.8917 25H43.374C46.1053 25 47.471 25 47.986 25.8923C48.5012 26.7845 47.8237 27.9765 46.4685 30.3604L44.682 33.5031C44.0083 34.6882 43.6715 35.2808 43.6762 35.7659C43.6823 36.3963 44.0175 36.977 44.559 37.295C44.9757 37.5398 45.6545 37.5398 47.0123 37.5398C48.7288 37.5398 49.5872 37.5398 50.0342 37.837C50.6148 38.223 50.9188 38.9137 50.8123 39.6053C50.7303 40.1377 50.153 40.776 48.9983 42.0528L39.7732 52.2538C37.9612 54.2575 37.0552 55.2593 36.4468 54.9423C35.8384 54.6252 36.1305 53.3037 36.7148 50.6603L37.8595 45.4827C38.3043 43.47 38.5268 42.4637 37.9918 41.7932C37.4568 41.1227 36.4313 41.1227 34.3802 41.1227Z" stroke="#4F4F4F" stroke-width="2" stroke-linejoin="round"/>
</svg>
