<svg width="32" height="33" viewBox="0 0 32 33" fill="none" xmlns="http://www.w3.org/2000/svg">
<path d="M29.3335 19.1666V13.8333C29.3335 8.80497 29.3335 6.29083 27.7714 4.72872C26.2094 3.16663 23.6951 3.16663 18.6668 3.16663H16.0002C10.9718 3.16663 8.4577 3.16663 6.89559 4.72872C5.3335 6.29083 5.3335 8.80497 5.3335 13.8333V19.1666C5.3335 24.1949 5.3335 26.7092 6.89559 28.2712C8.4577 29.8333 10.9718 29.8333 16.0002 29.8333H18.6668C23.6951 29.8333 26.2094 29.8333 27.7714 28.2712C29.3335 26.7092 29.3335 24.1949 29.3335 19.1666Z" stroke="#0052CC" stroke-width="1.5"/>
<path d="M6.6665 8.5H2.6665M6.6665 16.5H2.6665M6.6665 24.5H2.6665" stroke="#0052CC" stroke-width="1.5" stroke-linecap="round" stroke-linejoin="round"/>
<path d="M23.3333 9.83337H18M20.6667 15.1667H18" stroke="#0052CC" stroke-width="1.5" stroke-linecap="round" stroke-linejoin="round"/>
<path d="M12 29.8333V3.16663" stroke="#0052CC" stroke-width="1.5" stroke-linecap="round" stroke-linejoin="round"/>
</svg>
