<svg width="33" height="33" viewBox="0 0 33 33" fill="none" xmlns="http://www.w3.org/2000/svg">
<path d="M6.5 14.1871V8.5H26.5V14.1871C26.5 18.4201 26.5 20.5367 25.1983 21.8516C23.8965 23.1667 21.8013 23.1667 17.6111 23.1667H15.3889C11.1986 23.1667 9.10349 23.1667 7.80175 21.8516C6.5 20.5367 6.5 18.4201 6.5 14.1871Z" stroke="#0052CC" stroke-width="1.5" stroke-linecap="round" stroke-linejoin="round"/>
<path d="M6.5 8.49996L7.46153 6.44868C8.20727 4.8578 8.58012 4.06236 9.33589 3.61449C10.0917 3.16663 11.0611 3.16663 13 3.16663H20C21.9389 3.16663 22.9083 3.16663 23.6641 3.61449C24.4199 4.06236 24.7928 4.8578 25.5384 6.44868L26.5 8.49996" stroke="#0052CC" stroke-width="1.5" stroke-linecap="round"/>
<path d="M14.5 12.5H18.5" stroke="#0052CC" stroke-width="1.5" stroke-linecap="round"/>
<path d="M16.4998 26.5V29.8333M16.4998 26.5H9.83317M16.4998 26.5H23.1665M9.83317 26.5H6.49984C4.65889 26.5 3.1665 27.9924 3.1665 29.8333M9.83317 26.5V29.8333M23.1665 26.5H26.4998C28.3408 26.5 29.8332 27.9924 29.8332 29.8333M23.1665 26.5V29.8333" stroke="#0052CC" stroke-width="1.5" stroke-linecap="round" stroke-linejoin="round"/>
</svg>
