<svg width="66" height="66" viewBox="0 0 66 66" fill="none" xmlns="http://www.w3.org/2000/svg">
<rect x="0.75" y="0.75" width="64.5" height="64.5" rx="32.25" stroke="#ECECEC" stroke-width="1.5"/>
<path d="M34.3334 31.6667C34.3334 28.7212 31.9455 26.3334 29.0001 26.3334C26.0546 26.3334 23.6667 28.7212 23.6667 31.6667C23.6667 34.6122 26.0546 37 29.0001 37C31.9455 37 34.3334 34.6122 34.3334 31.6667Z" stroke="#0052CC" stroke-width="1.5" stroke-linecap="round" stroke-linejoin="round"/>
<path d="M31.7182 27.077C31.6842 26.834 31.6667 26.5857 31.6667 26.3333C31.6667 23.3878 34.0546 21 37.0001 21C39.9455 21 42.3334 23.3878 42.3334 26.3333C42.3334 29.2789 39.9455 31.6667 37.0001 31.6667C36.0073 31.6667 35.0779 31.3955 34.2819 30.9231" stroke="#0052CC" stroke-width="1.5" stroke-linecap="round" stroke-linejoin="round"/>
<path d="M37 45C37 40.5817 33.4183 37 29 37C24.5817 37 21 40.5817 21 45" stroke="#0052CC" stroke-width="1.5" stroke-linecap="round" stroke-linejoin="round"/>
<path d="M45 39.6666C45 35.2484 41.4183 31.6666 37 31.6666" stroke="#0052CC" stroke-width="1.5" stroke-linecap="round" stroke-linejoin="round"/>
</svg>
