<svg width="80" height="80" viewBox="0 0 80 80" fill="none" xmlns="http://www.w3.org/2000/svg">
<rect width="80" height="80" rx="40" fill="#B0C9EF"/>
<path d="M53.3334 56.667V48.3337C53.3334 45.191 53.3334 43.6197 52.357 42.6433C51.3807 41.667 49.8094 41.667 46.6667 41.667L40 56.667L33.3334 41.667C30.1907 41.667 28.6193 41.667 27.643 42.6433C26.6667 43.6197 26.6667 45.191 26.6667 48.3337V56.667" stroke="#4F4F4F" stroke-width="2" stroke-linecap="round" stroke-linejoin="round"/>
<path d="M40 45.0001L39.1666 51.6667L40 54.1667L40.8333 51.6667L40 45.0001ZM40 45.0001L38.3333 41.6667H41.6666L40 45.0001Z" stroke="#4F4F4F" stroke-width="2" stroke-linecap="round" stroke-linejoin="round"/>
<path d="M45.8334 30.8335V29.1668C45.8334 25.9452 43.2217 23.3335 40 23.3335C36.7784 23.3335 34.1667 25.9452 34.1667 29.1668V30.8335C34.1667 34.0552 36.7784 36.6668 40 36.6668C43.2217 36.6668 45.8334 34.0552 45.8334 30.8335Z" stroke="#4F4F4F" stroke-width="2" stroke-linecap="round" stroke-linejoin="round"/>
</svg>
