<svg width="66" height="66" viewBox="0 0 66 66" fill="none" xmlns="http://www.w3.org/2000/svg">
<rect x="0.75" y="0.75" width="64.5" height="64.5" rx="32.25" stroke="#ECECEC" stroke-width="1.5"/>
<path d="M29 19.6667V23.6667" stroke="#0052CC" stroke-width="1.5" stroke-linecap="round" stroke-linejoin="round"/>
<path d="M37 19.6667V23.6667" stroke="#0052CC" stroke-width="1.5" stroke-linecap="round" stroke-linejoin="round"/>
<path d="M33 41V46.3333" stroke="#0052CC" stroke-width="1.5" stroke-linecap="round" stroke-linejoin="round"/>
<path d="M33.9252 28.3333L31.1372 31.2332C30.8384 31.5438 31.0525 31.991 31.5397 32.0737L34.4602 32.5697C34.9797 32.6578 35.1778 33.1529 34.8146 33.455L31.3554 36.3333" stroke="#0052CC" stroke-width="1.5" stroke-linecap="round" stroke-linejoin="round"/>
<path d="M36.0756 23.6667H29.9247C27.0736 23.6667 25.6481 23.6667 24.8605 24.597C24.073 25.5273 24.2897 26.9552 24.7233 29.811L25.4215 34.4108C26.1149 38.9782 28.048 41 33.0002 41C37.9523 41 39.8854 38.9782 40.5788 34.4108L41.2771 29.811C41.7106 26.9552 41.9274 25.5273 41.1398 24.597C40.3523 23.6667 38.9267 23.6667 36.0756 23.6667Z" stroke="#0052CC" stroke-width="1.5"/>
</svg>
