<svg width="67" height="66" viewBox="0 0 67 66" fill="none" xmlns="http://www.w3.org/2000/svg">
<rect x="0.5" width="66" height="66" rx="33" fill="#E6EEFA"/>
<path d="M29.9998 23.358C28.9287 23.5793 27.8814 23.9006 26.8631 24.3148C25.6709 24.7997 25.0748 25.0422 24.6207 25.7172C24.1665 26.3922 24.1665 27.1568 24.1665 28.6859V39.6985C24.1665 41.6568 24.1665 42.636 24.7999 43.3824C25.4333 44.1288 26.299 44.2716 28.0304 44.5572C29.7847 44.8465 31.6162 44.9998 33.4998 44.9998C35.3834 44.9998 37.2149 44.8465 38.9693 44.5572C40.7006 44.2716 41.5664 44.1288 42.1998 43.3824C42.8332 42.636 42.8332 41.6568 42.8332 39.6985V28.6859C42.8332 27.1568 42.8332 26.3922 42.379 25.7172C41.9249 25.0422 41.3288 24.7997 40.1365 24.3148C39.1182 23.9006 38.071 23.5793 36.9998 23.358M29.9998 23.358C31.1416 23.1221 32.3102 22.9998 33.4998 22.9998C34.6894 22.9998 35.8581 23.1221 36.9998 23.358M29.9998 23.358V22.3332C29.9998 21.0761 29.9998 20.4476 30.3904 20.057C30.7809 19.6665 31.4094 19.6665 32.6665 19.6665H34.3332C35.5902 19.6665 36.2188 19.6665 36.6093 20.057C36.9998 20.4476 36.9998 21.0761 36.9998 22.3332V23.358" stroke="#0052CC" stroke-width="1.5" stroke-linecap="round" stroke-linejoin="round"/>
<path d="M30.8335 44.3332V42.3332C30.8335 41.0761 30.8335 40.4476 31.224 40.057C31.6146 39.6665 32.2431 39.6665 33.5002 39.6665C34.7572 39.6665 35.3858 39.6665 35.7763 40.057C36.1668 40.4476 36.1668 41.0761 36.1668 42.3332V44.3332" stroke="#0052CC" stroke-width="1.5" stroke-linecap="round" stroke-linejoin="round"/>
<path d="M42.8332 32.9998C39.975 32.1422 36.8184 31.6665 33.4998 31.6665C30.1813 31.6665 27.0247 32.1422 24.1665 32.9998" stroke="#0052CC" stroke-width="1.5" stroke-linecap="round" stroke-linejoin="round"/>
</svg>
