<svg width="66" height="66" viewBox="0 0 66 66" fill="none" xmlns="http://www.w3.org/2000/svg">
<rect x="0.75" y="0.75" width="64.5" height="64.5" rx="32.25" stroke="#ECECEC" stroke-width="1.5"/>
<path d="M37.9439 28.1074C39.2011 29.3531 37.1898 39.4837 35.1258 39.6622C33.3944 39.812 32.8548 36.397 32.4902 35.3148C32.1303 34.2465 31.7298 33.862 30.6704 33.5114C27.979 32.6212 26.6334 32.176 26.3669 31.471C25.6614 29.6045 36.3383 26.5164 37.9439 28.1074Z" stroke="#0052CC" stroke-width="1.5"/>
<path d="M46.3332 33C46.3332 40.3637 40.3636 46.3333 32.9998 46.3333C25.636 46.3333 19.6665 40.3637 19.6665 33C19.6665 25.6362 25.636 19.6666 32.9998 19.6666C40.3636 19.6666 46.3332 25.6362 46.3332 33Z" stroke="#0052CC" stroke-width="1.5"/>
</svg>
