<svg width="40" height="40" viewBox="0 0 40 40" fill="none" xmlns="http://www.w3.org/2000/svg">
<rect width="40" height="40" rx="20" fill="#E3E5E8"/>
<path d="M26.7088 11.4953C24.8165 10.5538 22.5009 10 20 10C17.4991 10 15.1835 10.5538 13.2912 11.4953C12.3632 11.9571 11.8992 12.1879 11.4496 12.9138C11 13.6397 11 14.3425 11 15.7481V19.2371C11 24.9205 15.5424 28.0804 18.173 29.4338C18.9067 29.8113 19.2735 30 20 30C20.7265 30 21.0933 29.8113 21.8269 29.4338C24.4576 28.0804 29 24.9205 29 19.2371V15.7481C29 14.3425 29 13.6397 28.5504 12.9138C28.1008 12.1879 27.6368 11.9571 26.7088 11.4953Z" stroke="#141B34" stroke-linecap="round" stroke-linejoin="round"/>
<path d="M17 21.5C17 21.5 18.4079 21.7519 19 23.5C19 23.5 20.5 20.5 23 19.5" stroke="#141B34" stroke-linecap="round" stroke-linejoin="round"/>
</svg>
