<svg width="66" height="66" viewBox="0 0 66 66" fill="none" xmlns="http://www.w3.org/2000/svg">
<rect x="0.75" y="0.75" width="64.5" height="64.5" rx="32.25" stroke="#ECECEC" stroke-width="1.5"/>
<path d="M45.4232 26.5218L44.7651 25.3797C44.2674 24.5159 44.0186 24.084 43.5951 23.9118C43.1716 23.7396 42.6927 23.8755 41.735 24.1473L40.1081 24.6056C39.4966 24.7466 38.855 24.6666 38.2967 24.3797L37.8475 24.1205C37.3687 23.8139 37.0004 23.3618 36.7966 22.8303L36.3514 21.5005C36.0586 20.6204 35.9122 20.1804 35.5636 19.9287C35.2152 19.6771 34.7523 19.6771 33.8264 19.6771H32.3401C31.4143 19.6771 30.9514 19.6771 30.6028 19.9287C30.2544 20.1804 30.108 20.6204 29.8152 21.5005L29.37 22.8303C29.1661 23.3618 28.7978 23.8139 28.3191 24.1205L27.8699 24.3797C27.3116 24.6666 26.67 24.7466 26.0586 24.6056L24.4316 24.1473C23.4738 23.8755 22.9949 23.7396 22.5715 23.9118C22.148 24.084 21.8992 24.5159 21.4015 25.3797L20.7433 26.5218C20.2768 27.3315 20.0435 27.7363 20.0888 28.1673C20.1341 28.5983 20.4464 28.9456 21.0709 29.6401L22.4457 31.177C22.7817 31.6024 23.0202 32.3437 23.0202 33.0102C23.0202 33.677 22.7817 34.4181 22.4457 34.8436L21.0709 36.3805C20.4464 37.0752 20.1341 37.4224 20.0888 37.8534C20.0435 38.2844 20.2768 38.6892 20.7433 39.4988L21.4014 40.6409C21.8992 41.5046 22.148 41.9366 22.5715 42.1088C22.9949 42.281 23.4738 42.1452 24.4316 41.8733L26.0585 41.415C26.6701 41.274 27.3117 41.3541 27.8701 41.641L28.3192 41.9002C28.7979 42.2069 29.1661 42.6589 29.3699 43.1904L29.8152 44.5204C30.108 45.4004 30.2544 45.8404 30.6028 46.0921C30.9514 46.3437 31.4143 46.3437 32.3401 46.3437H33.8264C34.7523 46.3437 35.2152 46.3437 35.5636 46.0921C35.9122 45.8404 36.0586 45.4004 36.3514 44.5204L36.7967 43.1904C37.0004 42.6589 37.3686 42.2069 37.8474 41.9002L38.2964 41.641C38.8548 41.3541 39.4965 41.274 40.1081 41.415L41.735 41.8733C42.6927 42.1452 43.1716 42.281 43.5951 42.1088C44.0186 41.9366 44.2674 41.5046 44.7651 40.6409L45.4232 39.4988C45.8898 38.6892 46.123 38.2844 46.0778 37.8534C46.0324 37.4224 45.7202 37.0752 45.0956 36.3805L43.7208 34.8436C43.3848 34.4181 43.1463 33.677 43.1463 33.0102C43.1463 32.3437 43.385 31.6024 43.7208 31.177L45.0956 29.6401C45.7202 28.9456 46.0324 28.5983 46.0778 28.1673C46.123 27.7363 45.8898 27.3315 45.4232 26.5218Z" stroke="#0052CC" stroke-width="1.5" stroke-linecap="round"/>
<path d="M37.6927 33C37.6927 35.5773 35.6033 37.6666 33.026 37.6666C30.4487 37.6666 28.3594 35.5773 28.3594 33C28.3594 30.4226 30.4487 28.3333 33.026 28.3333C35.6033 28.3333 37.6927 30.4226 37.6927 33Z" stroke="#0052CC" stroke-width="1.5"/>
</svg>
