<svg width="33" height="33" viewBox="0 0 33 33" fill="none" xmlns="http://www.w3.org/2000/svg">
<path d="M5.16699 13.8334V20.5C5.16699 24.2712 5.16699 26.1568 6.33857 27.3284C7.51014 28.5 9.39575 28.5 13.167 28.5H19.8336C23.6048 28.5 25.4906 28.5 26.662 27.3284C27.8336 26.1568 27.8336 24.2712 27.8336 20.5V13.8334" stroke="#0052CC" stroke-width="1.5" stroke-linecap="round" stroke-linejoin="round"/>
<path d="M23.167 10.5024C23.167 12.3434 21.6746 13.8333 19.8336 13.8333C17.9927 13.8333 16.5003 12.3409 16.5003 10.5C16.5003 12.3409 15.0079 13.8333 13.167 13.8333C11.3261 13.8333 9.83366 12.3409 9.83366 10.5C9.83366 12.3409 8.26904 13.8333 6.33898 13.8333C5.30009 13.8333 4.36709 13.4009 3.72697 12.7145C2.62646 11.5344 3.33445 9.7987 4.25294 8.48455L4.76966 7.77801C5.94545 6.17026 6.53334 5.36639 7.38688 4.93325C8.24041 4.5001 9.23632 4.50023 11.2281 4.5005L21.7738 4.5019C23.765 4.50217 24.7606 4.5023 25.6138 4.93543C26.467 5.36857 27.0547 6.17218 28.2302 7.77942L28.7476 8.48705C29.6662 9.80118 30.3742 11.5369 29.2736 12.717C28.6335 13.4034 27.7006 13.8357 26.6616 13.8357C24.7315 13.8357 23.167 12.3434 23.167 10.5024Z" stroke="#0052CC" stroke-width="1.5" stroke-linecap="round" stroke-linejoin="round"/>
<path d="M20.4961 23.1666C19.5844 23.9762 18.1329 24.5 16.498 24.5C14.8631 24.5 13.4117 23.9762 12.5 23.1666" stroke="#0052CC" stroke-width="1.5" stroke-linecap="round" stroke-linejoin="round"/>
</svg>
