<svg width="33" height="33" viewBox="0 0 33 33" fill="none" xmlns="http://www.w3.org/2000/svg">
<path d="M9.83301 23.8333H20.4997V20.5H3.49967C3.1899 20.5 3.03502 20.5 2.90622 20.5256C2.3773 20.6308 1.96383 21.0443 1.85862 21.5732C1.83301 21.702 1.83301 21.8569 1.83301 22.1667C1.83301 22.4764 1.83301 22.6313 1.85862 22.7601C1.96383 23.2891 2.3773 23.7025 2.90622 23.8077C3.03502 23.8333 3.1899 23.8333 3.49967 23.8333H4.49967" stroke="#0052CC" stroke-width="1.5" stroke-linecap="round" stroke-linejoin="round"/>
<path d="M23.1667 23.8333H20.5V13.1667C20.5 11.9096 20.5 11.2811 20.8905 10.8905C21.2811 10.5 21.9096 10.5 23.1667 10.5H24.1469C25.6219 10.5 26.3593 10.5 26.9707 10.8461C27.582 11.1923 27.9615 11.8246 28.7203 13.0894L30.4067 15.9C30.7843 16.5293 30.9732 16.8441 31.0699 17.1935C31.1667 17.5428 31.1667 17.9099 31.1667 18.6439V21.1667C31.1667 22.4237 31.1667 23.0523 30.7761 23.4428C30.3856 23.8333 29.7571 23.8333 28.5 23.8333M23.1667 23.8333C23.1667 25.3061 24.3605 26.5 25.8333 26.5C27.3061 26.5 28.5 25.3061 28.5 23.8333M23.1667 23.8333C23.1667 22.3605 24.3605 21.1667 25.8333 21.1667C27.3061 21.1667 28.5 22.3605 28.5 23.8333M30.5 17.1667H27.1667C25.9096 17.1667 25.2811 17.1667 24.8905 16.7761C24.5 16.3856 24.5 15.7571 24.5 14.5V13.8333" stroke="#0052CC" stroke-width="1.5" stroke-linecap="round" stroke-linejoin="round"/>
<path d="M9.83333 23.8333C9.83333 25.3061 8.63943 26.5 7.16667 26.5C5.69391 26.5 4.5 25.3061 4.5 23.8333C4.5 22.3605 5.69391 21.1666 7.16667 21.1666C8.63943 21.1666 9.83333 22.3605 9.83333 23.8333Z" stroke="#0052CC" stroke-width="1.5" stroke-linecap="round" stroke-linejoin="round"/>
<path d="M2.10393 9.23628C1.92903 10.0408 1.83301 10.9168 1.83301 11.8333C1.83301 12.7499 1.92903 13.6259 2.10393 14.4304C2.32934 15.4673 2.44205 15.9859 3.17459 16.5763C3.90714 17.1667 4.64345 17.1667 6.11607 17.1667H12.8833C14.3559 17.1667 15.0922 17.1667 15.8247 16.5763C16.5573 15.9859 16.6701 15.4673 16.8954 14.4304C17.0703 13.6259 17.1663 12.7499 17.1663 11.8333C17.1663 10.9168 17.0703 10.0408 16.8954 9.23628C16.6701 8.19931 16.5573 7.68083 15.8247 7.09041C15.0922 6.5 14.3559 6.5 12.8833 6.5H6.11607C4.64345 6.5 3.90714 6.5 3.17459 7.09041C2.44205 7.68083 2.32934 8.19931 2.10393 9.23628Z" stroke="#0052CC" stroke-width="1.5" stroke-linecap="round" stroke-linejoin="round"/>
<path d="M12.1663 6.5V17.1667M6.83301 17.1667V6.5" stroke="#0052CC" stroke-width="1.5" stroke-linecap="round" stroke-linejoin="round"/>
</svg>
