<svg width="80" height="80" viewBox="0 0 80 80" fill="none" xmlns="http://www.w3.org/2000/svg">
<rect width="80" height="80" rx="40" fill="#B0C9EF"/>
<path d="M39.9968 56.33V34.6633" stroke="#4F4F4F" stroke-width="2" stroke-linecap="round" stroke-linejoin="round"/>
<path d="M35 49.6668C32.2386 49.6668 30 47.3691 30 44.6076C27.1731 44.2032 25 41.7721 25 38.8334C25 36.3387 26.5659 34.2099 28.7683 33.3761C28.4888 32.7524 28.3333 32.061 28.3333 31.3333C28.3333 28.5719 30.5719 26.3333 33.3333 26.3333C33.9837 26.3333 34.6052 26.4575 35.1751 26.6835C35.753 24.5608 37.6942 23 40.0001 23C42.3057 23 44.2471 24.5608 44.8249 26.6835C45.3949 26.4575 46.0163 26.3333 46.6668 26.3333C49.4281 26.3333 51.6668 28.5719 51.6668 31.3333C51.6668 32.061 51.5112 32.7524 51.2317 33.3761C53.4341 34.2099 55.0001 36.3387 55.0001 38.8334C55.0001 41.7722 52.8267 44.2034 49.9996 44.6076C49.9996 47.3691 47.7614 49.6668 45.0001 49.6668" stroke="#4F4F4F" stroke-width="2" stroke-linecap="round" stroke-linejoin="round"/>
<path d="M39.9968 44.6632L44.1634 40.4966" stroke="#4F4F4F" stroke-width="2" stroke-linecap="round" stroke-linejoin="round"/>
<path d="M40 41.6667L35.8333 37.5" stroke="#4F4F4F" stroke-width="1.5" stroke-linecap="round" stroke-linejoin="round"/>
<path d="M36.6667 56.6667H43.3333" stroke="#4F4F4F" stroke-width="1.5" stroke-linecap="round" stroke-linejoin="round"/>
</svg>
