<svg width="30" height="30" viewBox="0 0 30 30" fill="none" xmlns="http://www.w3.org/2000/svg">
<path d="M3 14.875C3 9.27707 3 6.47811 4.73905 4.73905C6.47811 3 9.27707 3 14.875 3C20.473 3 23.2718 3 25.011 4.73905C26.75 6.47811 26.75 9.27707 26.75 14.875C26.75 20.4729 26.75 23.2719 25.011 25.011C23.2718 26.75 20.473 26.75 14.875 26.75C9.27707 26.75 6.47811 26.75 4.73905 25.011C3 23.2719 3 20.4729 3 14.875Z" stroke="#141B34" stroke-width="2" stroke-linecap="round" stroke-linejoin="round"/>
<path d="M8.625 21.125L13.867 15.8831M13.867 15.8831L8.625 8.625H12.0972L15.8831 13.8669M13.867 15.8831L17.6527 21.125H21.125L15.8831 13.8669M21.125 8.625L15.8831 13.8669" stroke="#141B34" stroke-width="2" stroke-linecap="round" stroke-linejoin="round"/>
</svg>
