<svg width="95" height="92" viewBox="0 0 95 92" fill="none" xmlns="http://www.w3.org/2000/svg">
<rect x="0.5" y="0.5" width="94" height="91" rx="32.5" fill="white"/>
<rect x="0.5" y="0.5" width="94" height="91" rx="32.5" stroke="#E7E7E7"/>
<path d="M49.3337 44.1668C49.3337 40.1167 46.0503 36.8335 42.0003 36.8335C37.9502 36.8335 34.667 40.1167 34.667 44.1668C34.667 48.2168 37.9502 51.5002 42.0003 51.5002C46.0503 51.5002 49.3337 48.2168 49.3337 44.1668Z" stroke="#0052CC" stroke-width="1.5" stroke-linecap="round" stroke-linejoin="round"/>
<path d="M45.7378 37.8558C45.691 37.5217 45.667 37.1803 45.667 36.8333C45.667 32.7832 48.9503 29.5 53.0003 29.5C57.0503 29.5 60.3337 32.7832 60.3337 36.8333C60.3337 40.8834 57.0503 44.1667 53.0003 44.1667C51.6352 44.1667 50.3574 43.7938 49.2629 43.1442" stroke="#0052CC" stroke-width="1.5" stroke-linecap="round" stroke-linejoin="round"/>
<path d="M53 62.5C53 56.4249 48.0751 51.5 42 51.5C35.9249 51.5 31 56.4249 31 62.5" stroke="#0052CC" stroke-width="1.5" stroke-linecap="round" stroke-linejoin="round"/>
<path d="M64 55.1665C64 49.0914 59.0751 44.1665 53 44.1665" stroke="#0052CC" stroke-width="1.5" stroke-linecap="round" stroke-linejoin="round"/>
</svg>
