<svg width="67" height="66" viewBox="0 0 67 66" fill="none" xmlns="http://www.w3.org/2000/svg">
<rect x="0.5" width="66" height="66" rx="33" fill="#E6EEFA"/>
<path d="M40.8335 42.3335V46.3335" stroke="#0052CC" stroke-width="1.5" stroke-linecap="round" stroke-linejoin="round"/>
<path d="M26.1665 42.3335V46.3335" stroke="#0052CC" stroke-width="1.5" stroke-linecap="round" stroke-linejoin="round"/>
<path d="M22.8335 30.3332C22.8335 25.3049 22.8335 22.7907 24.3956 21.2286C25.9577 19.6665 28.4718 19.6665 33.5002 19.6665C38.5284 19.6665 41.0427 19.6665 42.6047 21.2286C44.1668 22.7907 44.1668 25.3049 44.1668 30.3332V34.3332C44.1668 38.1044 44.1668 39.99 42.9952 41.1616C41.8236 42.3332 39.938 42.3332 36.1668 42.3332H30.8335C27.0623 42.3332 25.1766 42.3332 24.0051 41.1616C22.8335 39.99 22.8335 38.1044 22.8335 34.3332V30.3332Z" stroke="#0052CC" stroke-width="1.5" stroke-linejoin="round"/>
<path d="M26.8335 38.3335H28.1668" stroke="#0052CC" stroke-width="1.5" stroke-linecap="round" stroke-linejoin="round"/>
<path d="M38.8335 38.3335H40.1668" stroke="#0052CC" stroke-width="1.5" stroke-linecap="round" stroke-linejoin="round"/>
<path d="M20.1665 27.6665V30.3332" stroke="#0052CC" stroke-width="1.5" stroke-linecap="round" stroke-linejoin="round"/>
<path d="M46.8335 27.6665V30.3332" stroke="#0052CC" stroke-width="1.5" stroke-linecap="round" stroke-linejoin="round"/>
<path d="M23.5 23.6665H43.5" stroke="#0052CC" stroke-width="1.5" stroke-linecap="round"/>
<path d="M23.5 34.3335H43.5" stroke="#0052CC" stroke-width="1.5" stroke-linecap="round"/>
<path d="M33.5 34.3332V23.6665" stroke="#0052CC" stroke-width="1.5" stroke-linecap="round" stroke-linejoin="round"/>
</svg>
