<svg width="67" height="66" viewBox="0 0 67 66" fill="none" xmlns="http://www.w3.org/2000/svg">
<rect x="0.5" width="66" height="66" rx="33" fill="#E6EEFA"/>
<path d="M44.1668 46.3333V42.3333C44.1668 39.8192 44.1668 38.5621 43.3858 37.7811C42.6047 37 41.3476 37 38.8335 37H36.1668L33.5002 39.6667L30.8335 37H28.1668C25.6527 37 24.3956 37 23.6145 37.7811C22.8335 38.5621 22.8335 39.8192 22.8335 42.3333V46.3333" stroke="#0052CC" stroke-width="1.5" stroke-linecap="round" stroke-linejoin="round"/>
<path d="M38.8335 37V46.3333" stroke="#0052CC" stroke-width="1.5" stroke-linecap="round" stroke-linejoin="round"/>
<path d="M28.1665 37V46.3333" stroke="#0052CC" stroke-width="1.5" stroke-linecap="round" stroke-linejoin="round"/>
<path d="M38.1668 28.9998V26.3332C38.1668 23.7558 36.0775 21.6665 33.5002 21.6665C30.9228 21.6665 28.8335 23.7558 28.8335 26.3332V28.9998C28.8335 31.5772 30.9228 33.6665 33.5002 33.6665C36.0775 33.6665 38.1668 31.5772 38.1668 28.9998Z" stroke="#0052CC" stroke-width="1.5" stroke-linecap="round" stroke-linejoin="round"/>
<path d="M27.5 27H39.5" stroke="#0052CC" stroke-width="1.5" stroke-linecap="round" stroke-linejoin="round"/>
<path d="M33.5 19.6665V21.6665" stroke="#0052CC" stroke-width="1.5" stroke-linecap="round" stroke-linejoin="round"/>
</svg>
