<svg width="164" height="66" viewBox="0 0 164 66" fill="none" xmlns="http://www.w3.org/2000/svg">
<path d="M0.512 50.5V16.9H6.752V50.5H0.512ZM57.3613 42.58L57.0253 35.188L74.6413 16.9H81.6493L67.0093 32.452L63.5533 36.244L57.3613 42.58ZM51.7933 50.5V16.9H58.0333V50.5H51.7933ZM75.2173 50.5L62.3533 35.188L66.4813 30.628L82.5133 50.5H75.2173Z" fill="black"/>
<path d="M11.0881 50.5L26.2081 16.9H32.3521L47.5201 50.5H40.9921L27.9841 20.212H30.4801L17.5201 50.5H11.0881ZM18.0481 42.724L19.7281 37.828H37.8721L39.5521 42.724H18.0481Z" fill="#FF0000"/>
<path d="M97.424 22.456H102.992V24.168H97.424V22.456ZM97.584 27.256H103.904V29H95.504V17.8H103.68V19.544H97.584V27.256ZM106.223 29V17.8H107.935L114.959 26.424H114.111V17.8H116.175V29H114.463L107.439 20.376H108.287V29H106.223ZM121.096 22.456H126.664V24.168H121.096V22.456ZM121.256 27.256H127.576V29H119.176V17.8H127.352V19.544H121.256V27.256ZM129.895 29V17.8H134.503C135.495 17.8 136.343 17.96 137.047 18.28C137.761 18.6 138.311 19.0587 138.695 19.656C139.079 20.2533 139.271 20.9627 139.271 21.784C139.271 22.6053 139.079 23.3147 138.695 23.912C138.311 24.4987 137.761 24.952 137.047 25.272C136.343 25.5813 135.495 25.736 134.503 25.736H131.047L131.975 24.792V29H129.895ZM137.223 29L134.391 24.936H136.615L139.463 29H137.223ZM131.975 25.016L131.047 24.024H134.407C135.324 24.024 136.012 23.8267 136.471 23.432C136.94 23.0373 137.175 22.488 137.175 21.784C137.175 21.0693 136.94 20.52 136.471 20.136C136.012 19.752 135.324 19.56 134.407 19.56H131.047L131.975 18.536V25.016ZM146.83 29.16C145.955 29.16 145.15 29.0213 144.414 28.744C143.688 28.456 143.054 28.056 142.51 27.544C141.966 27.0213 141.544 26.408 141.246 25.704C140.947 25 140.798 24.232 140.798 23.4C140.798 22.568 140.947 21.8 141.246 21.096C141.544 20.392 141.966 19.784 142.51 19.272C143.064 18.7493 143.71 18.3493 144.446 18.072C145.182 17.784 145.987 17.64 146.862 17.64C147.811 17.64 148.664 17.7947 149.422 18.104C150.19 18.4133 150.835 18.8667 151.358 19.464L150.046 20.744C149.608 20.3067 149.134 19.9867 148.622 19.784C148.12 19.5707 147.566 19.464 146.958 19.464C146.371 19.464 145.827 19.56 145.326 19.752C144.824 19.944 144.392 20.216 144.03 20.568C143.667 20.92 143.384 21.336 143.182 21.816C142.99 22.296 142.894 22.824 142.894 23.4C142.894 23.9653 142.99 24.488 143.182 24.968C143.384 25.448 143.667 25.8693 144.03 26.232C144.392 26.584 144.819 26.856 145.31 27.048C145.8 27.24 146.344 27.336 146.942 27.336C147.496 27.336 148.03 27.2507 148.542 27.08C149.064 26.8987 149.56 26.6 150.03 26.184L151.214 27.736C150.627 28.2053 149.944 28.5627 149.166 28.808C148.398 29.0427 147.619 29.16 146.83 29.16ZM149.246 27.464V23.272H151.214V27.736L149.246 27.464ZM156.709 29V24.568L157.173 25.848L152.309 17.8H154.533L158.437 24.28H157.189L161.125 17.8H163.173L158.309 25.848L158.789 24.568V29H156.709ZM100.736 49.16C99.8613 49.16 99.056 49.0213 98.32 48.744C97.5947 48.456 96.96 48.056 96.416 47.544C95.872 47.0213 95.4507 46.408 95.152 45.704C94.8533 45 94.704 44.232 94.704 43.4C94.704 42.568 94.8533 41.8 95.152 41.096C95.4507 40.392 95.872 39.784 96.416 39.272C96.9707 38.7493 97.616 38.3493 98.352 38.072C99.088 37.784 99.8933 37.64 100.768 37.64C101.717 37.64 102.571 37.7947 103.328 38.104C104.096 38.4133 104.741 38.8667 105.264 39.464L103.952 40.744C103.515 40.3067 103.04 39.9867 102.528 39.784C102.027 39.5707 101.472 39.464 100.864 39.464C100.277 39.464 99.7333 39.56 99.232 39.752C98.7307 39.944 98.2987 40.216 97.936 40.568C97.5733 40.92 97.2907 41.336 97.088 41.816C96.896 42.296 96.8 42.824 96.8 43.4C96.8 43.9653 96.896 44.488 97.088 44.968C97.2907 45.448 97.5733 45.8693 97.936 46.232C98.2987 46.584 98.7253 46.856 99.216 47.048C99.7067 47.24 100.251 47.336 100.848 47.336C101.403 47.336 101.936 47.2507 102.448 47.08C102.971 46.8987 103.467 46.6 103.936 46.184L105.12 47.736C104.533 48.2053 103.851 48.5627 103.072 48.808C102.304 49.0427 101.525 49.16 100.736 49.16ZM103.152 47.464V43.272H105.12V47.736L103.152 47.464ZM107.863 49V37.8H112.471C113.463 37.8 114.311 37.96 115.015 38.28C115.73 38.6 116.279 39.0587 116.663 39.656C117.047 40.2533 117.239 40.9627 117.239 41.784C117.239 42.6053 117.047 43.3147 116.663 43.912C116.279 44.4987 115.73 44.952 115.015 45.272C114.311 45.5813 113.463 45.736 112.471 45.736H109.015L109.943 44.792V49H107.863ZM115.191 49L112.359 44.936H114.583L117.431 49H115.191ZM109.943 45.016L109.015 44.024H112.375C113.293 44.024 113.981 43.8267 114.439 43.432C114.909 43.0373 115.143 42.488 115.143 41.784C115.143 41.0693 114.909 40.52 114.439 40.136C113.981 39.752 113.293 39.56 112.375 39.56H109.015L109.943 38.536V45.016ZM124.815 49.16C123.94 49.16 123.135 49.016 122.399 48.728C121.663 48.44 121.023 48.04 120.479 47.528C119.935 47.0053 119.513 46.3973 119.215 45.704C118.916 45 118.767 44.232 118.767 43.4C118.767 42.568 118.916 41.8053 119.215 41.112C119.513 40.408 119.935 39.8 120.479 39.288C121.023 38.7653 121.663 38.36 122.399 38.072C123.135 37.784 123.935 37.64 124.799 37.64C125.673 37.64 126.473 37.784 127.199 38.072C127.935 38.36 128.575 38.7653 129.119 39.288C129.663 39.8 130.084 40.408 130.383 41.112C130.681 41.8053 130.831 42.568 130.831 43.4C130.831 44.232 130.681 45 130.383 45.704C130.084 46.408 129.663 47.016 129.119 47.528C128.575 48.04 127.935 48.44 127.199 48.728C126.473 49.016 125.679 49.16 124.815 49.16ZM124.799 47.336C125.364 47.336 125.887 47.24 126.367 47.048C126.847 46.856 127.263 46.584 127.615 46.232C127.967 45.8693 128.239 45.4533 128.431 44.984C128.633 44.504 128.735 43.976 128.735 43.4C128.735 42.824 128.633 42.3013 128.431 41.832C128.239 41.352 127.967 40.936 127.615 40.584C127.263 40.2213 126.847 39.944 126.367 39.752C125.887 39.56 125.364 39.464 124.799 39.464C124.233 39.464 123.711 39.56 123.231 39.752C122.761 39.944 122.345 40.2213 121.983 40.584C121.631 40.936 121.353 41.352 121.151 41.832C120.959 42.3013 120.863 42.824 120.863 43.4C120.863 43.9653 120.959 44.488 121.151 44.968C121.353 45.448 121.631 45.8693 121.983 46.232C122.335 46.584 122.751 46.856 123.231 47.048C123.711 47.24 124.233 47.336 124.799 47.336ZM137.851 49.16C136.315 49.16 135.11 48.728 134.235 47.864C133.371 47 132.939 45.752 132.939 44.12V37.8H135.019V44.04C135.019 45.192 135.265 46.0293 135.755 46.552C136.257 47.0747 136.961 47.336 137.867 47.336C138.774 47.336 139.473 47.0747 139.963 46.552C140.454 46.0293 140.699 45.192 140.699 44.04V37.8H142.747V44.12C142.747 45.752 142.31 47 141.435 47.864C140.571 48.728 139.377 49.16 137.851 49.16ZM145.66 49V37.8H150.268C151.26 37.8 152.108 37.96 152.812 38.28C153.527 38.6 154.076 39.0587 154.46 39.656C154.844 40.2533 155.036 40.9627 155.036 41.784C155.036 42.6053 154.844 43.3147 154.46 43.912C154.076 44.5093 153.527 44.968 152.812 45.288C152.108 45.608 151.26 45.768 150.268 45.768H146.812L147.74 44.792V49H145.66ZM147.74 45.016L146.812 44.008H150.172C151.09 44.008 151.778 43.816 152.236 43.432C152.706 43.0373 152.94 42.488 152.94 41.784C152.94 41.0693 152.706 40.52 152.236 40.136C151.778 39.752 151.09 39.56 150.172 39.56H146.812L147.74 38.536V45.016Z" fill="black"/>
</svg>
